<?xml version="1.0" encoding="utf-8"?>
<!-- Generator: Adobe Illustrator 15.0.0, SVG Export Plug-In . SVG Version: 6.00 Build 0)  -->
<!DOCTYPE svg PUBLIC "-//W3C//DTD SVG 1.1//EN" "http://www.w3.org/Graphics/SVG/1.1/DTD/svg11.dtd">
<svg version="1.1" id="Layer_1" xmlns="http://www.w3.org/2000/svg" xmlns:xlink="http://www.w3.org/1999/xlink" x="0px" y="0px"
	 width="315.5px" height="78px" viewBox="0 0 315.5 78" enable-background="new 0 0 315.5 78" xml:space="preserve">
<g>
	<g>
		<g>
			<g>
				<g>
					<g>
						<g>
							<path fill="#001B3B" d="M112.289,51.947l9.069-21.783h9.051l-6.768,16.234h15.022c0.03,0-0.15,0.232-0.544,0.696
								c-0.394,0.468-0.889,1.009-1.487,1.623c-0.597,0.619-1.227,1.233-1.888,1.853c-0.661,0.613-1.213,1.074-1.653,1.377H112.289z
								"/>
							<path fill="#001B3B" d="M157.303,39.464L157.303,39.464l2.3-2.682l1.693,9.657h-7.305l-4.848,5.509h21.601l-3.188-17.631
								c-0.097-0.329-0.216-0.734-0.359-1.213c-0.145-0.479-0.312-0.939-0.502-1.378c-0.191-0.438-0.422-0.806-0.691-1.109
								c-0.27-0.3-0.562-0.452-0.878-0.452h-7.962c-0.221,0-0.496,0.103-0.826,0.308c-0.331,0.205-0.663,0.439-0.993,0.7
								c-0.331,0.26-0.638,0.527-0.921,0.801c-0.284,0.273-0.473,0.493-0.567,0.658l-17.362,19.316h1.296h8.811L157.303,39.464z"/>
							<path fill="#001B3B" d="M243.078,30.165h21.135c1.073,0,1.95,0.205,2.633,0.617c0.68,0.41,1.211,0.932,1.592,1.562
								c0.381,0.63,0.645,1.313,0.789,2.055c0.146,0.739,0.219,1.424,0.222,2.055c0.004,1.396-0.388,2.547-1.173,3.45
								c-0.787,0.906-1.771,1.625-2.955,2.158c-1.182,0.533-2.491,0.918-3.928,1.149c-1.438,0.233-2.789,0.392-4.052,0.474
								l9.318,8.263h-10.142l-9.789-7.812l-0.521,0.329l-3.101,7.481h-9.1L243.078,30.165z M260.254,36.454
								c-0.001-0.219-0.049-0.405-0.145-0.557c-0.094-0.149-0.332-0.225-0.711-0.225h-9.524l-2.681,6.411l4.158-3.659h7.582
								c0.474,0,0.812-0.184,1.017-0.553c0.204-0.37,0.306-0.692,0.306-0.966L260.254,36.454z"/>
						</g>
						<path fill="#001B3B" d="M240.377,30.165c0.03,0-0.148,0.232-0.544,0.698c-0.394,0.467-0.89,1.008-1.485,1.624
							c-0.599,0.617-1.229,1.232-1.889,1.85c-0.662,0.615-1.214,1.075-1.654,1.376H220.21l-1.144,2.67c0,0,12.716,0,12.716,0.002
							c0.028,0-0.15,0.232-0.544,0.698c-0.395,0.467-0.889,1.007-1.485,1.624c-0.599,0.617-1.229,1.232-1.89,1.85
							c-0.661,0.615-1.213,1.074-1.653,1.377h-9.431l-1.034,2.467H233.8c0.03,0-0.149,0.232-0.543,0.697
							c-0.394,0.467-0.889,1.008-1.485,1.622c-0.599,0.619-1.229,1.233-1.89,1.853c-0.661,0.613-1.213,1.074-1.653,1.377h-23.834
							l9.067-21.783L240.377,30.165L240.377,30.165z"/>
						<path fill="#001B3B" d="M304.048,30.165c0.031,0-0.149,0.232-0.543,0.698c-0.394,0.467-0.889,1.008-1.485,1.624
							c-0.6,0.617-1.228,1.232-1.89,1.85c-0.661,0.615-1.213,1.116-1.653,1.418h-14.857h-0.325c-0.474,0-0.749,0.125-0.827,0.369
							c-0.078,0.249-0.115,0.508-0.115,0.782l0.002,0.246v0.179c0,0.007-0.008,0.019-0.008,0.027l0.002,0.205
							c0,0.009,0.018,0.026,0.028,0.039c0.021,0.157,0.056,0.313,0.12,0.475c0.098,0.232,0.271,0.349,0.523,0.349h5.196V38.42
							c5.448,0,9.864,0.829,9.864,6.754c0,5.926-4.454,6.774-9.9,6.774h-20.636c0.157-0.274,0.478-0.714,0.966-1.316
							s1.008-1.213,1.559-1.827c0.551-0.619,1.062-1.166,1.535-1.646c0.472-0.479,0.756-0.72,0.85-0.72h15.097
							c0.476,0,0.751-0.123,0.828-0.369s0.116-0.508,0.116-0.781l-0.001-0.246v-0.247c-0.002-0.219-0.05-0.446-0.146-0.679
							c-0.097-0.233-0.271-0.35-0.522-0.35h-4.63v-0.017c-5.447,0-9.863-0.833-9.863-6.783c0-5.951,4.453-6.803,9.9-6.803H304.048z"
							/>
					</g>
					<path fill="#001B3B" d="M115.71,34.336c-0.145-0.699-0.399-1.357-0.765-1.973c-0.365-0.617-0.856-1.136-1.475-1.561
						c-0.616-0.424-1.4-0.638-2.348-0.638h-21.75l-9.069,21.783H89.4l3.29-7.891h13.315c1.073,0,2.194-0.193,3.362-0.578
						c1.167-0.383,2.239-0.924,3.217-1.623c0.976-0.698,1.778-1.526,2.407-2.486c0.629-0.958,0.94-2.013,0.938-3.163
						C115.929,35.659,115.855,35.034,115.71,34.336z M106.243,37.871c-0.203,0.369-0.542,0.553-1.017,0.553h-7.582l-4.157,3.659
						l2.703-6.411h9.5c0.379,0,0.616,0.076,0.712,0.225c0.095,0.152,0.143,0.338,0.144,0.557l0.002,0.451
						C106.55,37.179,106.448,37.5,106.243,37.871z"/>
					<path fill="#001B3B" d="M207.814,34.336c-0.146-0.699-0.401-1.357-0.766-1.973c-0.365-0.617-0.855-1.136-1.475-1.561
						c-0.617-0.424-1.4-0.638-2.348-0.638h-21.752l-9.067,21.783h9.098l3.29-7.891h13.314c1.072,0,2.195-0.193,3.361-0.578
						c1.168-0.383,2.239-0.924,3.219-1.623c0.976-0.698,1.778-1.526,2.408-2.486c0.627-0.958,0.939-2.013,0.936-3.163
						C208.032,35.659,207.959,35.034,207.814,34.336z M198.348,37.871c-0.203,0.369-0.543,0.553-1.017,0.553h-7.582l-4.157,3.659
						l2.704-6.411h9.499c0.379,0,0.617,0.076,0.712,0.225c0.095,0.152,0.144,0.338,0.146,0.557v0.451
						C198.652,37.179,198.552,37.5,198.348,37.871z"/>
				</g>
			</g>
			<path fill="#EF3B3D" d="M22.499,17.799L4.24,61.145h58.894l18.258-43.346H22.499z"/>
		</g>
		<g>
			<g>
				<path fill="#001B3B" d="M305.238,53.997c-0.584,0-1.117-0.087-1.6-0.261c-0.481-0.174-0.895-0.412-1.236-0.715
					c-0.342-0.302-0.608-0.66-0.801-1.074c-0.19-0.415-0.287-0.866-0.289-1.354c-0.002-0.481,0.092-0.932,0.279-1.35
					s0.453-0.777,0.793-1.08c0.34-0.302,0.75-0.54,1.231-0.713c0.479-0.175,1.014-0.261,1.597-0.261c0.584,0,1.117,0.084,1.6,0.256
					c0.483,0.171,0.896,0.408,1.236,0.713c0.342,0.306,0.609,0.666,0.801,1.08s0.289,0.865,0.289,1.354
					c0.002,0.487-0.092,0.938-0.279,1.354c-0.188,0.416-0.452,0.773-0.793,1.076c-0.34,0.302-0.75,0.539-1.23,0.713
					C306.354,53.91,305.822,53.997,305.238,53.997z M305.236,53.387c0.488,0,0.929-0.072,1.314-0.215
					c0.387-0.143,0.717-0.339,0.987-0.588c0.271-0.25,0.479-0.546,0.624-0.889c0.145-0.342,0.216-0.711,0.215-1.103
					c-0.002-0.393-0.076-0.76-0.223-1.103c-0.146-0.342-0.356-0.639-0.631-0.889c-0.271-0.25-0.604-0.444-0.989-0.588
					c-0.39-0.144-0.828-0.216-1.318-0.216c-0.491,0-0.93,0.072-1.315,0.216c-0.387,0.144-0.717,0.338-0.987,0.588
					s-0.479,0.547-0.623,0.889c-0.146,0.343-0.217,0.71-0.215,1.103c0.001,0.392,0.075,0.761,0.222,1.103
					c0.146,0.343,0.357,0.639,0.631,0.889c0.272,0.249,0.604,0.445,0.991,0.588C304.307,53.314,304.745,53.387,305.236,53.387z"/>
			</g>
			<path fill="#001B3B" d="M304.04,49.07h2.817c0.144,0,0.261,0.027,0.352,0.082c0.09,0.055,0.161,0.123,0.212,0.209
				c0.052,0.084,0.086,0.176,0.104,0.272c0.02,0.099,0.029,0.189,0.029,0.274c0,0.187-0.052,0.34-0.156,0.46
				s-0.235,0.217-0.395,0.286c-0.156,0.072-0.332,0.123-0.523,0.154c-0.19,0.031-0.371,0.053-0.539,0.062l1.242,1.102h-1.353
				l-1.306-1.041l-0.068,0.045l-0.414,0.996h-1.212L304.04,49.07z M306.33,49.909c0-0.03-0.007-0.054-0.02-0.074
				c-0.014-0.021-0.045-0.03-0.096-0.03h-1.27l-0.149,0.366h1.356c0.062,0,0.107-0.024,0.137-0.073
				c0.027-0.049,0.04-0.092,0.04-0.128L306.33,49.909L306.33,49.909z"/>
		</g>
	</g>
	<path fill="#001B3B" d="M63.509,37.673h-30.12l-16.513,14.53l10.737-25.464h37.74c1.506,0,2.449,0.299,2.827,0.896
		c0.38,0.601,0.569,1.336,0.574,2.207l0.004,1.796c0.004,1.086-0.4,2.367-1.21,3.837C66.736,36.942,65.392,37.673,63.509,37.673z"/>
</g>
</svg>
